<?xml version="1.0" encoding="UTF-8" standalone="no"?>
<!-- Created with Inkscape (http://www.inkscape.org/) -->

<svg
   version="1.1"
   id="svg14647"
   width="13130.324"
   height="3965.554"
   viewBox="0 0 13130.324 3965.554"
   sodipodi:docname="KedExf.svg"
   inkscape:version="1.2.2 (732a01da63, 2022-12-09)"
   xmlns:inkscape="http://www.inkscape.org/namespaces/inkscape"
   xmlns:sodipodi="http://sodipodi.sourceforge.net/DTD/sodipodi-0.dtd"
   xmlns="http://www.w3.org/2000/svg"
   xmlns:svg="http://www.w3.org/2000/svg">
  <defs
     id="defs14651" />
  <sodipodi:namedview
     id="namedview14649"
     pagecolor="#ffffff"
     bordercolor="#cccccc"
     borderopacity="1"
     inkscape:showpageshadow="0"
     inkscape:pageopacity="1"
     inkscape:pagecheckerboard="0"
     inkscape:deskcolor="#d1d1d1"
     showgrid="false"
     inkscape:zoom="0.04"
     inkscape:cx="10537.5"
     inkscape:cy="1750"
     inkscape:window-width="1920"
     inkscape:window-height="1009"
     inkscape:window-x="-8"
     inkscape:window-y="-8"
     inkscape:window-maximized="1"
     inkscape:current-layer="g14653" />
  <g
     inkscape:groupmode="layer"
     inkscape:label="Image"
     id="g14653"
     transform="translate(975.47645,-4674.58)">
    <g
       aria-label="x"
       id="text4975"
       style="font-size:8.14998px;fill:#ea6214;fill-opacity:1;stroke-width:0.203751"
       transform="matrix(541.05325,0,0,541.05325,-144220.33,-167886.09)">
      <path
         d="m 289.01917,326.00797 h -1.67138 l -0.95508,-1.33711 -0.97895,1.33711 h -1.63955 l 1.76291,-2.23249 -1.76016,-2.23647 h 1.67138 l 0.96427,1.31323 0.96381,-1.31323 h 1.64352 l -1.7597,2.20065 z"
         style="-inkscape-font-specification:'Futura bold,  Bold';fill:#ea6214;fill-opacity:1"
         id="path5058"
         sodipodi:nodetypes="ccccccccccccc" />
    </g>
    <path
       id="rect5055"
       style="fill:#ea6214;fill-opacity:1;stroke:none;stroke-width:524.531;stroke-linecap:square;stroke-miterlimit:5.4;paint-order:stroke markers fill"
       d="M 7324.5507,4674.58 V 8501.5806 H 9316.6293 V 7761.4739 H 8031.1705 v -946.0803 h 1192.9919 93.4661 V 6075.4297 H 9224.1624 8031.1705 V 5414.6866 H 9316.6293 V 4674.58 Z" />
    <path
       style="fill:#312281;fill-opacity:1"
       d="m 5654.5507,8639.5997 c -29.2594,-1.547 -71.6884,-5.96 -106.8512,-11.1135 -92.237,-13.5183 -172.8109,-35.4702 -263.3741,-71.7548 -32.286,-12.9355 -85.8426,-35.8985 -88.8909,-38.1129 -1.4388,-1.0452 -5.4888,-3.101 -9,-4.5683 -20.4445,-8.5438 -65.3557,-32.497 -92.9124,-49.5544 -117.0196,-72.4344 -240.5813,-187.6839 -343.7283,-320.6052 -31.5358,-40.6388 -69.508,-97.1016 -81.9998,-121.9296 -2.2467,-4.4655 -7.2672,-14.0147 -11.1566,-21.2204 -25.6105,-47.4472 -58.376,-117.2571 -79.5283,-169.4422 -16.6466,-41.0689 -37.169,-98.3621 -46.6442,-130.2184 -23.9804,-80.6239 -38.4537,-146.4249 -47.5653,-216.25 l -2.7729,-21.25 H 3606.712 2733.2974 l 0.5566,37.75 c 0.88,59.6821 5.7389,89.3439 23.2868,142.1576 10.0575,30.2695 21.5069,52.9767 44.166,87.5924 29.4316,44.9618 66.2623,87.2377 98.2439,112.7684 4.125,3.2929 8.8839,7.3922 10.5754,9.1094 8.6362,8.7677 38.9849,30.6749 59.4246,42.8957 59.067,35.3158 129.4575,59.5053 204.1035,70.1395 32.4352,4.6208 39.7663,5.0881 79.3965,5.0613 39.7008,-0.027 51.5632,-0.7411 84.5,-5.0876 82.2731,-10.8569 149.3795,-39.1686 207.5,-87.5426 12.5121,-10.4139 37.2631,-35.0061 49.1595,-48.8441 16.0782,-18.7024 36.7543,-47.3263 51.1055,-70.75 l 3.2165,-5.25 h 439.0093 439.0092 v 3.7841 c 0,5.4518 -11.0972,37.937 -23.9863,70.2159 -26.4636,66.2743 -56.849,126.6784 -95.169,189.1896 -92.303,150.5734 -214.0863,280.4162 -354.8447,378.3282 -82.5758,57.44 -176.5499,106.4925 -270.5,141.1954 -89.2597,32.9704 -147.6356,50.4425 -198,59.2622 -6.6,1.1557 -23.25,4.3084 -37,7.0058 -121.9734,23.9286 -229.3424,33.488 -355.6018,31.6604 -232.5795,-3.3667 -462.5382,-65.4844 -665.9748,-179.8969 -232.1566,-130.5646 -423.9796,-328.03 -545.2077,-561.2447 -83.5857,-160.7995 -131.8357,-329.1727 -146.865,-512.5 -3.1194,-38.05 -3.1562,-39.2656 -3.1484,-104 0.01,-64.5835 0.051,-66.0247 3.1222,-103 7.4487,-89.6907 19.4525,-260.6349 108.4606,-470.0106 62.4042,-140.7585 157.4911,-278.9916 199.6191,-325.9894 20.7121,-23.1063 81.1463,-83.825 103.0958,-103.5812 52.9381,-47.648 103.0706,-86.959 158,-123.8943 119.5264,-80.3712 245.3195,-137.7049 376.4332,-171.57 10.9633,-2.8317 20.8633,-5.7323 22,-6.4458 4.4152,-2.7713 64.4807,-16.1514 114.0668,-25.4094 59.5725,-11.1224 107.6287,-18.2575 159.5,-23.6814 24.6609,-2.5787 72.2757,-3.5926 143.5,-3.0558 63.8088,0.4809 70.3421,0.6977 106,3.5174 187.5963,14.8341 360.0774,62.3799 524.3305,144.5357 280.6643,140.3822 504.1808,370.1603 634.6204,652.3986 14.0188,30.3332 35.6579,83.2445 44.0404,107.6862 2.6408,7.7 5.0819,14.3239 5.4248,14.7197 0.3428,0.3959 3.4286,-8.2833 6.8574,-19.2869 40.9208,-131.3252 110.9651,-271.035 195.7456,-390.4328 62.0614,-87.402 166.4667,-200.0875 228.9809,-247.1409 53.4064,-40.1981 75.896,-55.9672 112,-78.5313 39.3919,-24.619 65.8149,-39.2638 108.4462,-60.1056 39.6236,-19.3714 58.3838,-27.874 86.585,-39.2422 166.1174,-66.9642 364.2681,-92.0851 591.5874,-74.9996 41.6979,3.134 74.4517,8.4231 115.3814,18.6317 133.4971,33.2968 243.8572,87.5728 348.5,171.3951 34.0594,27.2827 50.9163,42.516 91.75,82.9129 l 30.25,29.9264 V 5455.2533 4674.58 h 438 438 v 1913.5 1913.5 h -437.996 -437.9961 l -0.2539,-122.4493 -0.254,-122.4493 -12.5,15.69 c -71.3359,89.5408 -151.4113,171.1699 -212.5,216.6234 -7.15,5.32 -14.8,11.0296 -17,12.688 -5.0026,3.771 -60.7044,36.9262 -69.5,41.3682 -3.575,1.8055 -12.575,5.8728 -20,9.0386 -108.7451,46.3648 -231.249,75.6769 -359.5,86.0194 -22.4391,1.8096 -80.4996,2.654 -102.5,1.4907 z m 313,-714.4439 c 22.0508,-3.0789 35.6236,-5.6308 53.7355,-10.1035 131.7765,-32.5414 249.6871,-126.984 328.4803,-263.1021 18.9372,-32.7147 29.5668,-56.1256 41.8637,-92.2018 14.9641,-43.9009 22.2532,-82.6831 33.017,-175.6684 2.8651,-24.7503 3.1678,-30.426 3.6332,-68.1171 0.5153,-41.7407 -0.3646,-68.8027 -3.3129,-101.8829 -8.9266,-100.1579 -33.1597,-198.4332 -71.8792,-291.5 -10.5032,-25.2456 -13.3023,-31.0582 -27.4479,-57 -19.8916,-36.4793 -32.1886,-56.3771 -41.7157,-67.5 -41.5488,-48.5086 -82.2375,-85.7687 -123.5457,-113.1351 -6.9694,-4.6172 -12.8194,-8.7479 -13,-9.1795 -0.1805,-0.4315 -5.2783,-3.523 -11.3283,-6.8698 -59.5961,-32.9686 -118.5589,-51.3691 -183.5,-57.2647 -14.71,-1.3355 -56.9243,-1.3366 -72.5,0 -135.4374,11.605 -260.737,85.3797 -353.5564,208.1691 -76.9249,101.7629 -125.9194,231.5605 -139.3922,369.282 -5.2403,53.5666 -5.2376,112.0336 0.01,162.5 14.5723,140.2123 64.2753,269.4665 142.8552,371.5 88.7692,115.2638 207.5833,186.8729 335.086,201.9558 19.7502,2.3364 19.6361,2.3323 56.5,2.019 24.8238,-0.211 37.7254,-0.7436 46,-1.899 z M 3712.076,6898.33 c -0.2265,-0.6875 -2.2897,-7.325 -4.5849,-14.75 -14.6068,-47.2548 -35.4361,-94.6369 -58.2472,-132.5 -7.1149,-11.8097 -22.1213,-34.0531 -27.4394,-40.6722 -2.0646,-2.5698 -6.8873,-8.6448 -10.7172,-13.5 -37.4694,-47.5011 -76.5055,-82.4037 -124.5164,-111.3316 -54.6168,-32.9081 -107.6775,-52.1656 -176.0202,-63.8837 -36.0197,-6.176 -59.1056,-8.1164 -96.3952,-8.1022 -42.0144,0.016 -71.9954,3.1923 -109.6048,11.6117 -38.4976,8.6183 -70.5831,20.1453 -105.9085,38.0484 -10.1247,5.1313 -18.7921,9.3296 -19.2608,9.3296 -0.4688,0 -5.6839,2.9865 -11.5892,6.6367 -99.1623,61.294 -167.6597,150.4409 -208.8906,271.8633 -5.2645,15.5038 -14.3509,45.6077 -14.3509,47.5458 0,0.6043 177.4689,0.9542 483.9686,0.9542 386.7279,0 483.8859,-0.2512 483.5567,-1.25 z m -919.7961,-914.3542 c -0.3323,-0.3323 -1.1948,-0.3678 -1.9167,-0.079 -0.7977,0.3192 -0.5608,0.5562 0.6042,0.6042 1.0541,0.043 1.6448,-0.193 1.3125,-0.5253 z"
       id="path15900"
       sodipodi:nodetypes="sssssssssssscccsssssssssssscccssssssssssscscssssssssssssssssssssssscccccccccccssssssscssssssssssssscsscsssccsssssssssssssssssssss" />
    <path
       id="path15891"
       style="color:#000000;-inkscape-font-specification:'MS UI Gothic';fill:#312281;fill-opacity:1;stroke-width:401.456;-inkscape-stroke:none"
       d="m -975.47645,4674.58 v 200.728 87.4775 3622.5072 H 59.606878 V 7169.0003 L 180.71578,7049.8036 1220.732,8585.2927 H 2454.3417 L 916.39903,6324.8587 2594.3031,4674.58 H 1196.2088 L 59.606878,5793.4219 V 4674.58 Z" />
  </g>
</svg>
